<?xml version="1.0" standalone="no"?><!DOCTYPE svg PUBLIC "-//W3C//DTD SVG 1.1//EN" "http://www.w3.org/Graphics/SVG/1.1/DTD/svg11.dtd"><svg t="1598857147011" class="icon" viewBox="0 0 1024 1024" version="1.1" xmlns="http://www.w3.org/2000/svg" p-id="12223" width="30" height="30" xmlns:xlink="http://www.w3.org/1999/xlink"><defs><style type="text/css"></style></defs><path d="M884.736 515.072c-1.024-5.632-5.632-12.288-6.144-12.8L757.76 382.464V272.896c0-11.264-9.216-20.48-20.48-20.48h-34.304c-11.264 0-20.48 9.216-20.48 20.48v20.48s0 3.072-1.024 4.096c-0.512 1.024-3.072 1.536-3.072 1.536s-3.584 1.024-5.12-0.512c-1.024-1.024-114.688-113.664-144.384-143.872-4.608-4.608-9.728-7.168-16.896-7.168S497.152 153.6 497.152 153.6l-348.16 348.672c-0.512 0.512-1.024 1.024-1.024 1.536-5.632 7.168-9.216 20.992-2.56 36.864l2.56 5.632c9.728 17.92 19.968 22.528 23.04 23.552 1.024 0.512 2.56 0.512 3.584 0.512h69.632v273.92c0 10.24 10.24 22.528 22.528 22.528h492.544c13.824 0 22.528-11.776 22.528-22.528v-273.92h70.144c2.048-0.512 20.48-4.096 27.648-19.968 6.656-16.384 6.144-29.696 5.12-35.328z m-303.616 276.992H441.344c-2.048 0-3.072-1.536-3.584-3.072v-150.528c0-10.752 8.704-18.944 18.944-18.944h109.056c10.752 0 18.944 8.704 18.944 18.944V788.48c0 2.56-1.536 3.584-3.584 3.584z" fill="#9CEEFF" p-id="12224"></path></svg>