<?xml version="1.0" standalone="no"?><!DOCTYPE svg PUBLIC "-//W3C//DTD SVG 1.1//EN" "http://www.w3.org/Graphics/SVG/1.1/DTD/svg11.dtd"><svg t="1598237537992" class="icon" viewBox="0 0 1024 1024" version="1.1" xmlns="http://www.w3.org/2000/svg" p-id="5670" xmlns:xlink="http://www.w3.org/1999/xlink" width="30" height="30"><defs><style type="text/css"></style></defs><path d="M581.716035 416.544744l-0.231975 0.014166-57.731792 33.331867 23.562334-108.111201a12.891462 12.891462 0 0 0-8.42372-14.589664l-21.754343-6.897286a10.398168 10.398168 0 0 0-12.948128 6.275733l-0.380723 1.420186-27.054362 123.697829-119.357585-37.84565a10.398168 10.398168 0 0 0-12.857817 6.224381l-0.380723 1.418415-4.937005 21.823403a12.585113 12.585113 0 0 0 8.372367 14.501124l104.367719 33.29468-57.103156 32.968852a11.848458 11.848458 0 0 0-4.00202 16.36047l12.011372 20.80342a11.96356 11.96356 0 0 0 16.388802 4.469512l72.502079-41.860065 24.022744 41.608611-72.050524 41.597985a11.956477 11.956477 0 0 0-4.774091 16.68984l12.011372 20.80342a11.850229 11.850229 0 0 0 16.337449 4.37743l72.502079-41.860065 30.055877 52.058132a11.958248 11.958248 0 0 0 16.42776 4.324307l20.716651-11.961789a11.965331 11.965331 0 0 0 4.37743-16.33745l-30.055877-52.058132 72.054065-41.599756a11.960019 11.960019 0 0 0 4.735133-16.544634l-12.011372-20.803419a11.961789 11.961789 0 0 0-16.390573-4.471284l-72.682701 41.962772-24.231699-41.969855 72.052294-41.599756a12.064496 12.064496 0 0 0 5.215022-16.33922l-11.960019-20.716651a11.958248 11.958248 0 0 0-7.263843-5.650639 12.013143 12.013143 0 0 0-9.128501 1.189981z" p-id="5671" fill="#ffffff"></path><path d="M793.888606 268.827713a106.708723 106.708723 0 0 1 19.413338-35.223087c1.694661-2.059446 3.53984-3.84796 5.429288-5.778137a28.396633 28.396633 0 0 0 10.265358-23.819101 24.327322 24.327322 0 0 0-3.208699-11.595233l-72.17625-125.013537a47.94101 47.94101 0 0 0-65.815518-17.479619L24.284256 432.999066a47.840074 47.840074 0 0 0-17.77003 65.737603l68.223813 118.167604c5.452309 15.538816 22.43079 23.764206 38.006793 18.403979l2.523397-0.616241a101.924008 101.924008 0 0 1 71.198766 9.332144c1.444977 0.752592 2.849226 1.584871 4.203892 2.496835l2.523397 1.664557 1.073108 0.819883 2.627875 1.848721a95.885562 95.885562 0 0 1 37.790755 86.257693 103.154717 103.154717 0 0 1-23.624313 53.510193c-1.746014 1.967365-3.493799 3.9365-5.429289 5.778137-12.411574 10.853265-13.714887 29.694633-2.921829 42.15579l68.17069 118.077293c13.227915 22.910678 42.488701 30.819094 65.454273 17.688573l663.781029-383.237668a47.932156 47.932156 0 0 0 17.407016-65.526877l-72.123127-124.921455a23.79431 23.79431 0 0 0-8.965587-8.875276 29.004019 29.004019 0 0 0-24.764711-2.750061 97.275644 97.275644 0 0 1-14.874764 2.941308 95.784626 95.784626 0 0 1-102.906804-123.124088z m118.038335 169.506789l51.999696 90.066696 0.244371 0.216038c6.635207 11.492526 2.698707 26.184897-8.790277 32.818334L333.927259 920.230813c-11.483672 6.562604-26.112294 2.608396-32.728022-8.848713l-51.997925-90.063154c51.498558-60.712057 44.121383-151.657072-16.489738-203.277816a144.239169 144.239169 0 0 0-119.94018-31.982514l-51.999696-90.066695a24.024515 24.024515 0 0 1 8.788506-33.657695L691.013676 103.538982c11.485443-6.564375 26.114065-2.608396 32.726251 8.845172l52.364482 90.698873c-39.432291 46.457075-45.4123 112.686962-14.943825 165.4605s90.815746 80.709761 150.766357 69.790975z" p-id="5672" fill="#ffffff"></path></svg>