<?xml version="1.0" standalone="no"?><!DOCTYPE svg PUBLIC "-//W3C//DTD SVG 1.1//EN" "http://www.w3.org/Graphics/SVG/1.1/DTD/svg11.dtd"><svg t="1598235938580" class="icon" viewBox="0 0 1024 1024" version="1.1" xmlns="http://www.w3.org/2000/svg" p-id="1556" width="30" height="30" xmlns:xlink="http://www.w3.org/1999/xlink"><defs><style type="text/css"></style></defs><path d="M770.646926 298.881238a102.325336 102.325336 0 0 1-101.770545-112.928595v-105.358543h33.70229V14.866339A14.866339 14.866339 0 0 1 717.44501 0h3.422079a14.866339 14.866339 0 0 1 14.866339 14.866339v65.727761H805.469169V14.866339A14.866339 14.866339 0 0 1 820.334471 0h3.451114A14.866339 14.866339 0 0 1 838.652962 14.866339v65.727761h33.733399v105.075443a103.476399 103.476399 0 0 1 0.58279 10.888432 102.322225 102.322225 0 0 1-102.322225 102.323263z m98.570383 251.310197L512.854483 192.33119 153.756068 550.191435H53.202953L513.046326 92.102654 969.386736 550.191435h-100.173575z m-354.340689-331.008335l333.28972 331.526831h0.33806v472.091304H180.549906V550.707857h0.725896z m26.608217 709.640597h116.143275v-116.143275h-116.143275v116.143275z m0-167.797997h116.143275v-116.143275h-116.143275v116.143275z m-169.029945 167.797997h116.143275v-116.143275h-116.143275v116.143275z m0-166.69671h116.143275v-116.143275h-116.143275v116.143275z" p-id="1557" fill="#ffffff"></path></svg>