<?xml version="1.0" standalone="no"?><!DOCTYPE svg PUBLIC "-//W3C//DTD SVG 1.1//EN" "http://www.w3.org/Graphics/SVG/1.1/DTD/svg11.dtd"><svg t="1598171058221" class="icon" viewBox="0 0 1024 1024" version="1.1" xmlns="http://www.w3.org/2000/svg" p-id="10862" xmlns:xlink="http://www.w3.org/1999/xlink" width="30" height="30"><defs><style type="text/css"></style></defs><path d="M655.1 184.1h-3.6v-24.3c0-52.8-42.9-95.7-95.7-95.7h-83.4c-52.8 0-95.7 42.9-95.7 95.7v24.3H373c-83.1 0-150.8 67.6-150.8 150.8v414.2c0 76.5 57.3 139.9 131.3 149.5v26.9c0 18.8 15.2 34 34 34s34-15.2 34-34v-25.6h171.4v25.6c0 18.8 15.2 34 34 34s34-15.2 34-34v-25.8c80.3-3.2 144.7-69.5 144.7-150.6V334.9c0.2-83.1-67.4-150.8-150.5-150.8z m-210.4-24.2c0-15.2 12.4-27.6 27.6-27.6h83.4c15.2 0 27.6 12.4 27.6 27.6v24.3H444.7v-24.3z m21.9 511.5c0 18.8-15.2 34-34 34s-34-15.2-34-34V400.3c0-18.8 15.2-34 34-34s34 15.2 34 34v271.1z m90 0V400.3c0-18.8 15.2-34 34-34s34 15.2 34 34v271.1c0 18.8-15.2 34-34 34s-34-15.2-34-34z" p-id="10863" fill="#ffffff"></path></svg>